<?xml version="1.0" encoding="utf-8" standalone="no"?>

<svg xmlns:xlink="http://www.w3.org/1999/xlink" width="275.04pt" height="135.969231pt" viewBox="0 0 275.04 135.969231" xmlns="http://www.w3.org/2000/svg" version="1.1">
 <metadata>
  <rdf:RDF xmlns:dc="http://purl.org/dc/elements/1.1/" xmlns:cc="http://creativecommons.org/ns#" xmlns:rdf="http://www.w3.org/1999/02/22-rdf-syntax-ns#">
   <cc:Work>
    <dc:type rdf:resource="http://purl.org/dc/dcmitype/StillImage"/>
    <dc:date>2026-09-26T18:40:54.682046</dc:date>
    <dc:format>image/svg+xml</dc:format>
    <dc:creator>
     <cc:Agent>
      <dc:title>Matplotlib v3.10.9, https://matplotlib.org/</dc:title>
     </cc:Agent>
    </dc:creator>
   </cc:Work>
  </rdf:RDF>
 </metadata>
 <defs>
  <style type="text/css">*{stroke-linejoin: round; stroke-linecap: butt}</style>
 </defs>
 <g id="figure_1">
  <g id="patch_1">
   <path d="M 0 135.969231 
L 275.04 135.969231 
L 275.04 0 
L 0 0 
L 0 135.969231 
z
" style="fill: none"/>
  </g>
  <g id="axes_1">
   <g id="patch_2">
    <path d="M 137.52 88.587692 
C 142.984 88.587692 148.224944 86.416822 152.088575 82.553191 
C 155.952207 78.689559 158.123077 73.448615 158.123077 67.984615 
C 158.123077 62.520616 155.952207 57.279671 152.088575 53.41604 
C 148.224944 49.552409 142.984 47.381538 137.52 47.381538 
C 132.056 47.381538 126.815056 49.552409 122.951425 53.41604 
C 119.087793 57.279671 116.916923 62.520616 116.916923 67.984615 
C 116.916923 73.448615 119.087793 78.689559 122.951425 82.553191 
C 126.815056 86.416822 132.056 88.587692 137.52 88.587692 
z
" clip-path="url(#p43967aa28d)" style="fill: #ffffff; stroke: #111111; stroke-width: 1.4; stroke-linejoin: miter"/>
   </g>
   <g id="patch_3">
    <path d="M 34.504615 124.643077 
L 240.535385 124.643077 
L 240.535385 11.326154 
L 34.504615 11.326154 
L 34.504615 124.643077 
z
" clip-path="url(#p43967aa28d)" style="fill: none; stroke: #111111; stroke-width: 1.2; stroke-linejoin: miter"/>
   </g>
   <g id="patch_4">
    <path d="M 270.152308 67.984615 
L 263.713846 71.203846 
L 263.713846 68.499692 
L 243.110769 68.499692 
L 243.110769 67.469538 
L 263.713846 67.469538 
L 263.713846 64.765385 
z
" clip-path="url(#p43967aa28d)" style="fill: #2e6594; stroke: #2e6594; stroke-linejoin: miter"/>
   </g>
   <g id="patch_5">
    <path d="M 4.887692 67.984615 
L 11.326154 64.765385 
L 11.326154 67.469538 
L 31.929231 67.469538 
L 31.929231 68.499692 
L 11.326154 68.499692 
L 11.326154 71.203846 
z
" clip-path="url(#p43967aa28d)" style="fill: #2e6594; stroke: #2e6594; stroke-linejoin: miter"/>
   </g>
   <g id="QuadContourSet_1">
    <path d="M 215.805179 124.643077 
L 216.266096 124.622967 
L 216.782464 124.600671 
L 217.298832 124.578608 
L 217.8152 124.556775 
L 218.331567 124.53517 
L 218.847935 124.513792 
L 219.364303 124.492638 
L 219.880671 124.471706 
L 220.397039 124.450995 
L 220.913407 124.430502 
L 221.429774 124.410225 
L 221.946142 124.390163 
L 222.46251 124.370312 
L 222.978878 124.350672 
L 223.495246 124.33124 
L 224.011614 124.312013 
L 224.527981 124.292991 
L 225.044349 124.274171 
L 225.560717 124.255551 
L 226.077085 124.237128 
L 226.593453 124.218902 
L 227.109821 124.200869 
L 227.626189 124.183028 
L 228.038096 124.168948 
L 228.142556 124.165375 
L 228.658924 124.147906 
L 229.175292 124.130623 
L 229.69166 124.113523 
L 230.208028 124.096606 
L 230.724396 124.079868 
L 231.240763 124.063309 
L 231.757131 124.046925 
L 232.273499 124.030716 
L 232.789867 124.014679 
L 233.306235 123.998812 
L 233.822603 123.983113 
L 234.338971 123.967581 
L 234.855338 123.952214 
L 235.371706 123.937009 
L 235.888074 123.921965 
L 236.404442 123.90708 
L 236.92081 123.892353 
L 237.437178 123.877781 
L 237.953545 123.863362 
L 238.469913 123.849096 
L 238.986281 123.834979 
L 239.502649 123.821011 
L 240.019017 123.80719 
L 240.535385 123.793513 
M 34.504615 123.793513 
L 35.020983 123.80719 
L 35.537351 123.821011 
L 36.053719 123.834979 
L 36.570087 123.849096 
L 37.086455 123.863362 
L 37.602822 123.877781 
L 38.11919 123.892353 
L 38.635558 123.90708 
L 39.151926 123.921965 
L 39.668294 123.937009 
L 40.184662 123.952214 
L 40.701029 123.967581 
L 41.217397 123.983113 
L 41.733765 123.998812 
L 42.250133 124.014679 
L 42.766501 124.030716 
L 43.282869 124.046925 
L 43.799237 124.063309 
L 44.315604 124.079868 
L 44.831972 124.096606 
L 45.34834 124.113523 
L 45.864708 124.130623 
L 46.381076 124.147906 
L 46.897444 124.165375 
L 47.001904 124.168948 
L 47.413811 124.183028 
L 47.930179 124.200869 
L 48.446547 124.218902 
L 48.962915 124.237128 
L 49.479283 124.255551 
L 49.995651 124.274171 
L 50.512019 124.292991 
L 51.028386 124.312013 
L 51.544754 124.33124 
L 52.061122 124.350672 
L 52.57749 124.370312 
L 53.093858 124.390163 
L 53.610226 124.410225 
L 54.126593 124.430502 
L 54.642961 124.450995 
L 55.159329 124.471706 
L 55.675697 124.492638 
L 56.192065 124.513792 
L 56.708433 124.53517 
L 57.2248 124.556775 
L 57.741168 124.578608 
L 58.257536 124.600671 
L 58.773904 124.622967 
L 59.234821 124.643077 
" clip-path="url(#p43967aa28d)" style="fill: none; stroke: #4d4d4d; stroke-width: 0.9"/>
    <path d="M 34.504615 118.284016 
L 52.57749 118.862288 
L 67.552157 119.556932 
L 80.977721 120.402345 
L 94.919653 121.514393 
L 120.738045 123.649772 
L 128.999931 124.058745 
L 136.22908 124.20575 
L 143.45823 124.13555 
L 151.203748 123.830046 
L 159.982001 123.251231 
L 173.407565 122.107174 
L 191.996807 120.552902 
L 205.422371 119.672213 
L 219.364303 118.987392 
L 235.888074 118.411173 
L 240.535385 118.284016 
L 240.535385 118.284016 
" clip-path="url(#p43967aa28d)" style="fill: none; stroke: #4d4d4d; stroke-width: 0.9"/>
    <path d="M 34.504615 112.757438 
L 52.061122 113.307077 
L 66.003054 113.950707 
L 78.395882 114.744264 
L 89.755975 115.694633 
L 103.181538 117.057912 
L 119.188942 118.658626 
L 126.934459 119.199927 
L 133.647241 119.45231 
L 140.360023 119.470797 
L 147.072805 119.253083 
L 154.301955 118.784963 
L 163.080208 117.982064 
L 194.062279 114.940882 
L 205.422371 114.157898 
L 218.331567 113.496997 
L 233.822603 112.940553 
L 240.535385 112.757438 
L 240.535385 112.757438 
" clip-path="url(#p43967aa28d)" style="fill: none; stroke: #4d4d4d; stroke-width: 0.9"/>
    <path d="M 34.504615 107.213175 
L 52.061122 107.742435 
L 65.486686 108.356003 
L 76.846778 109.091527 
L 86.714187 109.945066 
L 96.468757 111.007239 
L 111.443424 112.910301 
L 120.738045 113.986623 
L 127.450827 114.551398 
L 133.647241 114.840843 
L 139.327287 114.881131 
L 145.300937 114.68636 
L 151.203748 114.275868 
L 158.432898 113.539067 
L 169.79299 112.110092 
L 183.218554 110.474883 
L 193.029543 109.510723 
L 203.3569 108.727854 
L 214.716992 108.092387 
L 228.658924 107.543907 
L 240.535385 107.213175 
L 240.535385 107.213175 
" clip-path="url(#p43967aa28d)" style="fill: none; stroke: #4d4d4d; stroke-width: 0.9"/>
    <path d="M 34.504615 101.651157 
L 52.061122 102.146455 
L 65.486686 102.740832 
L 76.330411 103.443886 
L 85.42469 104.255513 
L 93.617048 105.203772 
L 102.148803 106.414243 
L 123.319884 109.575312 
L 128.999931 110.114476 
L 134.163609 110.383857 
L 139.348139 110.419195 
L 144.490966 110.218929 
L 149.654644 109.797971 
L 155.851058 109.053371 
L 164.112944 107.806469 
L 179.087611 105.513791 
L 187.349497 104.495772 
L 196.12775 103.650893 
L 205.938739 102.948431 
L 217.522351 102.358996 
L 231.757131 101.868666 
L 240.535385 101.651157 
L 240.535385 101.651157 
" clip-path="url(#p43967aa28d)" style="fill: none; stroke: #4d4d4d; stroke-width: 0.9"/>
    <path d="M 34.504615 96.071894 
L 52.57749 96.535327 
L 65.486686 97.072112 
L 75.814043 97.716164 
L 84.075928 98.442887 
L 91.305078 99.290952 
L 98.01786 100.292172 
L 105.24701 101.597073 
L 123.319884 105.019123 
L 128.501218 105.677902 
L 133.130873 106.035684 
L 137.261816 106.148417 
L 141.392759 106.060654 
L 146.040069 105.727697 
L 150.68738 105.169797 
L 156.367426 104.24302 
L 164.629312 102.625677 
L 174.956669 100.642951 
L 182.185818 99.503104 
L 189.414968 98.606204 
L 197.160486 97.877182 
L 206.455107 97.240611 
L 217.8152 96.702478 
L 232.273499 96.253446 
L 240.535385 96.071894 
L 240.535385 96.071894 
" clip-path="url(#p43967aa28d)" style="fill: none; stroke: #4d4d4d; stroke-width: 0.9"/>
    <path d="M 34.504615 90.476585 
L 53.610226 90.903672 
L 66.519422 91.395866 
L 76.330411 91.975318 
L 84.075928 92.638833 
L 90.78871 93.432958 
L 96.468757 94.317125 
L 102.148803 95.430016 
L 108.345217 96.892184 
L 122.807598 100.462478 
L 127.450827 101.294654 
L 131.58177 101.796784 
L 135.196345 102.029112 
L 138.81092 102.05841 
L 142.425495 101.883243 
L 146.556437 101.44257 
L 150.68738 100.767695 
L 155.334691 99.778876 
L 162.049881 98.091831 
L 171.342094 95.773845 
L 177.02214 94.597118 
L 182.702186 93.65274 
L 188.8986 92.858166 
L 196.12775 92.17185 
L 204.906003 91.582811 
L 215.749728 91.091973 
L 230.208028 90.675602 
L 240.535385 90.476585 
L 240.535385 90.476585 
" clip-path="url(#p43967aa28d)" style="fill: none; stroke: #4d4d4d; stroke-width: 0.9"/>
    <path d="M 34.504615 84.867174 
L 55.159329 85.244169 
L 68.584893 85.693465 
L 78.480247 86.238597 
L 85.625032 86.834241 
L 91.821446 87.573023 
L 96.985124 88.418691 
L 101.632435 89.416012 
L 106.279746 90.66947 
L 111.443424 92.329378 
L 121.770781 95.771703 
L 125.901724 96.861653 
L 129.516298 97.576565 
L 133.130873 98.038906 
L 136.22908 98.222787 
L 139.327287 98.206005 
L 142.425495 97.989159 
L 145.523702 97.576565 
L 149.138276 96.861653 
L 152.752851 95.92184 
L 157.400162 94.461653 
L 170.309358 90.223055 
L 174.956669 89.056137 
L 179.626158 88.135114 
L 184.767658 87.363725 
L 190.964072 86.685601 
L 198.193222 86.130074 
L 207.487843 85.649434 
L 219.880671 85.244169 
L 237.437178 84.909073 
L 240.535385 84.867174 
L 240.535385 84.867174 
" clip-path="url(#p43967aa28d)" style="fill: none; stroke: #4d4d4d; stroke-width: 0.9"/>
    <path d="M 34.504615 79.246376 
L 58.257536 79.567471 
L 72.715836 79.972857 
L 82.010457 80.4341 
L 88.723239 80.961826 
L 93.886917 81.560973 
L 98.01786 82.230259 
L 101.632435 83.015742 
L 104.730642 83.883459 
L 107.828849 84.961205 
L 111.443424 86.482396 
L 118.156206 89.690558 
L 122.287149 91.513787 
L 125.385356 92.655661 
L 128.483563 93.558116 
L 131.58177 94.202524 
L 134.679977 94.582112 
L 137.261816 94.693528 
L 139.843655 94.619286 
L 142.838585 94.298796 
L 145.523702 93.801749 
L 148.621909 92.984238 
L 151.720116 91.919143 
L 155.334691 90.406525 
L 160.498369 87.946493 
L 165.229615 85.764467 
L 168.243887 84.577382 
L 171.342094 83.571531 
L 174.956669 82.652224 
L 179.087611 81.869853 
L 183.734922 81.234413 
L 189.414968 80.690606 
L 196.644118 80.226643 
L 206.455107 79.828872 
L 220.397039 79.499366 
L 240.535385 79.246376 
L 240.535385 79.246376 
" clip-path="url(#p43967aa28d)" style="fill: none; stroke: #4d4d4d; stroke-width: 0.9"/>
    <path d="M 34.504615 73.617566 
L 64.970318 73.863983 
L 80.461353 74.192864 
L 89.755975 74.600674 
L 95.952389 75.088451 
L 100.083331 75.61035 
L 103.602181 76.28188 
L 105.763378 76.85659 
L 108.14876 77.704268 
L 109.89432 78.501265 
L 111.959792 79.673473 
L 114.602266 81.497303 
L 121.831819 86.712726 
L 124.35262 88.150641 
L 126.934459 89.346827 
L 129.516298 90.267106 
L 132.098138 90.921146 
L 134.679977 91.319721 
L 137.261816 91.467426 
L 139.843655 91.369034 
L 142.425495 91.020911 
L 145.007334 90.418676 
L 147.589173 89.552372 
L 150.171012 88.412206 
L 152.752851 86.991055 
L 155.351721 85.290338 
L 159.178359 82.445562 
L 162.047473 80.347995 
L 164.112944 79.056516 
L 166.178415 78.00822 
L 168.243887 77.192014 
L 170.825726 76.428748 
L 173.923933 75.780434 
L 177.538508 75.259389 
L 182.185818 74.812487 
L 188.8986 74.410276 
L 198.709589 74.076805 
L 213.684257 73.817228 
L 239.502649 73.622317 
L 240.535385 73.617566 
L 240.535385 73.617566 
" clip-path="url(#p43967aa28d)" style="fill: none; stroke: #4d4d4d; stroke-width: 0.9"/>
    <path d="M 34.504615 67.984615 
L 116.607102 67.984615 
M 158.432898 67.984615 
L 240.535385 67.984615 
L 240.535385 67.984615 
" clip-path="url(#p43967aa28d)" style="fill: none; stroke: #4d4d4d; stroke-width: 0.9"/>
    <path d="M 34.504615 62.351665 
L 64.970318 62.105248 
L 80.461353 61.776366 
L 89.755975 61.368556 
L 95.952389 60.88078 
L 100.083331 60.358881 
L 103.602181 59.687351 
L 105.763378 59.112641 
L 108.14876 58.264963 
L 109.89432 57.467966 
L 111.959792 56.295758 
L 114.602266 54.471928 
L 121.831819 49.256505 
L 124.35262 47.818589 
L 126.934459 46.622404 
L 129.516298 45.702125 
L 132.098138 45.048085 
L 134.679977 44.64951 
L 137.261816 44.501805 
L 139.843655 44.600197 
L 142.425495 44.94832 
L 145.007334 45.550555 
L 147.589173 46.416859 
L 150.171012 47.557025 
L 152.752851 48.978176 
L 155.351721 50.678893 
L 159.178359 53.523669 
L 162.047473 55.621236 
L 164.112944 56.912715 
L 166.178415 57.961011 
L 168.243887 58.777217 
L 170.825726 59.540483 
L 173.923933 60.188797 
L 177.538508 60.709841 
L 182.185818 61.156744 
L 188.8986 61.558955 
L 198.709589 61.892426 
L 213.684257 62.152003 
L 239.502649 62.346914 
L 240.535385 62.351665 
L 240.535385 62.351665 
" clip-path="url(#p43967aa28d)" style="fill: none; stroke: #4d4d4d; stroke-width: 0.9"/>
    <path d="M 34.504615 56.722855 
L 58.257536 56.401759 
L 72.715836 55.996373 
L 82.010457 55.535131 
L 88.723239 55.007405 
L 93.886917 54.408258 
L 98.01786 53.738972 
L 101.632435 52.953489 
L 104.730642 52.085772 
L 107.828849 51.008026 
L 111.443424 49.486835 
L 118.156206 46.278673 
L 122.287149 44.455444 
L 125.385356 43.31357 
L 128.483563 42.411115 
L 131.58177 41.766707 
L 134.679977 41.387119 
L 137.261816 41.275703 
L 139.843655 41.349945 
L 142.838585 41.670435 
L 145.523702 42.167481 
L 148.621909 42.984993 
L 151.720116 44.050087 
L 155.334691 45.562705 
L 160.498369 48.022738 
L 165.229615 50.204763 
L 168.243887 51.391848 
L 171.342094 52.3977 
L 174.956669 53.317007 
L 179.087611 54.099378 
L 183.734922 54.734818 
L 189.414968 55.278625 
L 196.644118 55.742588 
L 206.455107 56.140359 
L 220.397039 56.469864 
L 240.535385 56.722855 
L 240.535385 56.722855 
" clip-path="url(#p43967aa28d)" style="fill: none; stroke: #4d4d4d; stroke-width: 0.9"/>
    <path d="M 34.504615 51.102057 
L 55.159329 50.725062 
L 68.584893 50.275766 
L 78.480247 49.730634 
L 85.625032 49.13499 
L 91.821446 48.396207 
L 96.985124 47.550539 
L 101.632435 46.553219 
L 106.279746 45.29976 
L 111.443424 43.639853 
L 121.770781 40.197528 
L 125.901724 39.107578 
L 129.516298 38.392666 
L 133.130873 37.930325 
L 136.22908 37.746444 
L 139.327287 37.763226 
L 142.425495 37.980072 
L 145.523702 38.392666 
L 149.138276 39.107578 
L 152.752851 40.047391 
L 157.400162 41.507578 
L 170.309358 45.746175 
L 174.956669 46.913094 
L 179.626158 47.834117 
L 184.767658 48.605506 
L 190.964072 49.28363 
L 198.193222 49.839156 
L 207.487843 50.319797 
L 219.880671 50.725062 
L 237.437178 51.060158 
L 240.535385 51.102057 
L 240.535385 51.102057 
" clip-path="url(#p43967aa28d)" style="fill: none; stroke: #4d4d4d; stroke-width: 0.9"/>
    <path d="M 34.504615 45.492645 
L 53.610226 45.065559 
L 66.519422 44.573365 
L 76.330411 43.993912 
L 84.075928 43.330397 
L 90.78871 42.536273 
L 96.468757 41.652106 
L 102.148803 40.539215 
L 108.345217 39.077046 
L 122.807598 35.506752 
L 127.450827 34.674576 
L 131.58177 34.172447 
L 135.196345 33.940118 
L 138.81092 33.910821 
L 142.425495 34.085988 
L 146.556437 34.526661 
L 150.68738 35.201536 
L 155.334691 36.190355 
L 162.049881 37.877399 
L 171.342094 40.195386 
L 177.02214 41.372113 
L 182.702186 42.31649 
L 188.8986 43.111065 
L 196.12775 43.797381 
L 204.906003 44.386419 
L 215.749728 44.877257 
L 230.208028 45.293629 
L 240.535385 45.492645 
L 240.535385 45.492645 
" clip-path="url(#p43967aa28d)" style="fill: none; stroke: #4d4d4d; stroke-width: 0.9"/>
    <path d="M 34.504615 39.897336 
L 52.57749 39.433904 
L 65.486686 38.897119 
L 75.814043 38.253067 
L 84.075928 37.526343 
L 91.305078 36.678279 
L 98.01786 35.677059 
L 105.24701 34.372158 
L 123.319884 30.950108 
L 128.501218 30.291329 
L 133.130873 29.933547 
L 137.261816 29.820814 
L 141.392759 29.908577 
L 146.040069 30.241534 
L 150.68738 30.799434 
L 156.367426 31.726211 
L 164.629312 33.343554 
L 174.956669 35.32628 
L 182.185818 36.466127 
L 189.414968 37.363027 
L 197.160486 38.092049 
L 206.455107 38.72862 
L 217.8152 39.266752 
L 232.273499 39.715785 
L 240.535385 39.897336 
L 240.535385 39.897336 
" clip-path="url(#p43967aa28d)" style="fill: none; stroke: #4d4d4d; stroke-width: 0.9"/>
    <path d="M 34.504615 34.318074 
L 52.061122 33.822776 
L 65.486686 33.228399 
L 76.330411 32.525344 
L 85.42469 31.713717 
L 93.617048 30.765459 
L 102.148803 29.554988 
L 123.319884 26.393919 
L 128.999931 25.854755 
L 134.163609 25.585374 
L 139.348139 25.550035 
L 144.490966 25.750302 
L 149.654644 26.17126 
L 155.851058 26.91586 
L 164.112944 28.162761 
L 179.087611 30.45544 
L 187.349497 31.473459 
L 196.12775 32.318338 
L 205.938739 33.0208 
L 217.522351 33.610235 
L 231.757131 34.100564 
L 240.535385 34.318074 
L 240.535385 34.318074 
" clip-path="url(#p43967aa28d)" style="fill: none; stroke: #4d4d4d; stroke-width: 0.9"/>
    <path d="M 34.504615 28.756056 
L 52.061122 28.226796 
L 65.486686 27.613227 
L 76.846778 26.877704 
L 86.714187 26.024165 
L 96.468757 24.961992 
L 111.443424 23.058929 
L 120.738045 21.982607 
L 127.450827 21.417832 
L 133.647241 21.128388 
L 139.327287 21.0881 
L 145.300937 21.282871 
L 151.203748 21.693363 
L 158.432898 22.430163 
L 169.79299 23.859138 
L 183.218554 25.494348 
L 193.029543 26.458508 
L 203.3569 27.241377 
L 214.716992 27.876844 
L 228.658924 28.425324 
L 240.535385 28.756056 
L 240.535385 28.756056 
" clip-path="url(#p43967aa28d)" style="fill: none; stroke: #4d4d4d; stroke-width: 0.9"/>
    <path d="M 34.504615 23.211793 
L 52.061122 22.662154 
L 66.003054 22.018524 
L 78.395882 21.224967 
L 89.755975 20.274598 
L 103.181538 18.911319 
L 119.188942 17.310604 
L 126.934459 16.769304 
L 133.647241 16.516921 
L 140.360023 16.498434 
L 147.072805 16.716148 
L 154.301955 17.184268 
L 163.080208 17.987167 
L 194.062279 21.028349 
L 205.422371 21.811333 
L 218.331567 22.472234 
L 233.822603 23.028678 
L 240.535385 23.211793 
L 240.535385 23.211793 
" clip-path="url(#p43967aa28d)" style="fill: none; stroke: #4d4d4d; stroke-width: 0.9"/>
    <path d="M 34.504615 17.685214 
L 52.57749 17.106943 
L 67.552157 16.412298 
L 80.977721 15.566885 
L 94.919653 14.454838 
L 120.738045 12.319459 
L 128.999931 11.910486 
L 136.22908 11.763481 
L 143.45823 11.833681 
L 151.203748 12.139184 
L 159.982001 12.718 
L 173.407565 13.862056 
L 191.996807 15.416328 
L 205.422371 16.297017 
L 219.364303 16.981839 
L 235.888074 17.558058 
L 240.535385 17.685214 
L 240.535385 17.685214 
" clip-path="url(#p43967aa28d)" style="fill: none; stroke: #4d4d4d; stroke-width: 0.9"/>
    <path d="M 34.504615 12.175717 
L 35.020983 12.162041 
L 35.537351 12.14822 
L 36.053719 12.134252 
L 36.570087 12.120135 
L 37.086455 12.105869 
L 37.602822 12.09145 
L 38.11919 12.076878 
L 38.635558 12.06215 
L 39.151926 12.047266 
L 39.668294 12.032222 
L 40.184662 12.017017 
L 40.701029 12.00165 
L 41.217397 11.986118 
L 41.733765 11.970419 
L 42.250133 11.954552 
L 42.766501 11.938515 
L 43.282869 11.922306 
L 43.799237 11.905922 
L 44.315604 11.889363 
L 44.831972 11.872625 
L 45.34834 11.855708 
L 45.864708 11.838608 
L 46.381076 11.821325 
L 46.897444 11.803855 
L 47.001904 11.800283 
L 47.413811 11.786203 
L 47.930179 11.768362 
L 48.446547 11.750329 
L 48.962915 11.732102 
L 49.479283 11.71368 
L 49.995651 11.69506 
L 50.512019 11.676239 
L 51.028386 11.657217 
L 51.544754 11.637991 
L 52.061122 11.618559 
L 52.57749 11.598919 
L 53.093858 11.579068 
L 53.610226 11.559006 
L 54.126593 11.538729 
L 54.642961 11.518236 
L 55.159329 11.497524 
L 55.675697 11.476593 
L 56.192065 11.455439 
L 56.708433 11.43406 
L 57.2248 11.412456 
L 57.741168 11.390623 
L 58.257536 11.36856 
L 58.773904 11.346264 
L 59.234821 11.326154 
M 215.805179 11.326154 
L 216.266096 11.346264 
L 216.782464 11.36856 
L 217.298832 11.390623 
L 217.8152 11.412456 
L 218.331567 11.43406 
L 218.847935 11.455439 
L 219.364303 11.476593 
L 219.880671 11.497524 
L 220.397039 11.518236 
L 220.913407 11.538729 
L 221.429774 11.559006 
L 221.946142 11.579068 
L 222.46251 11.598919 
L 222.978878 11.618559 
L 223.495246 11.637991 
L 224.011614 11.657217 
L 224.527981 11.676239 
L 225.044349 11.69506 
L 225.560717 11.71368 
L 226.077085 11.732102 
L 226.593453 11.750329 
L 227.109821 11.768362 
L 227.626189 11.786203 
L 228.038096 11.800283 
L 228.142556 11.803855 
L 228.658924 11.821325 
L 229.175292 11.838608 
L 229.69166 11.855708 
L 230.208028 11.872625 
L 230.724396 11.889363 
L 231.240763 11.905922 
L 231.757131 11.922306 
L 232.273499 11.938515 
L 232.789867 11.954552 
L 233.306235 11.970419 
L 233.822603 11.986118 
L 234.338971 12.00165 
L 234.855338 12.017017 
L 235.371706 12.032222 
L 235.888074 12.047266 
L 236.404442 12.06215 
L 236.92081 12.076878 
L 237.437178 12.09145 
L 237.953545 12.105869 
L 238.469913 12.120135 
L 238.986281 12.134252 
L 239.502649 12.14822 
L 240.019017 12.162041 
L 240.535385 12.175717 
" clip-path="url(#p43967aa28d)" style="fill: none; stroke: #4d4d4d; stroke-width: 0.9"/>
   </g>
  </g>
 </g>
 <defs>
  <clipPath id="p43967aa28d">
   <rect x="3.6" y="3.6" width="267.84" height="128.769231"/>
  </clipPath>
 </defs>
</svg>
